<svg xmlns="http://www.w3.org/2000/svg" width="1872" height="2330.667" version="1.0" viewBox="0 0 1404 1748"><path d="M941.5 13c-5.5 1-14.3 3-19.5 4.5-5.2 1.4-11.5 3.1-14 3.7-2.5.6-4.9 1.4-5.5 1.8-.5.4-2.8 1.3-5 2-4.1 1.2-11.5 4.3-15 6.2-1.1.6-4.3 2.4-7.2 4-2.8 1.5-5.8 2.8-6.6 2.8-.8 0-1.7.7-2.1 1.5-.3.8-1.8 2.1-3.3 2.7-1.5.7-3.5 1.9-4.3 2.8-1.9 1.9-5 3.9-7.2 4.6-1 .4-1.8 1-1.8 1.5s-.9.9-2 .9-2 .7-2 1.4c0 1.5-.6 1.9-11.4 7.4-3.6 1.9-6.6 3.8-6.6 4.3 0 .6-.5.7-1 .4-.6-.4-2.8.6-4.8 2.2-2 1.5-3.9 2.8-4.1 2.8-.3 0-1.6 1.1-3.1 2.5-1.4 1.4-4.6 4.1-7 6-2.5 1.9-6.2 5.2-8.3 7.3-2.1 2.1-4.3 3.5-4.9 3.1-.6-.4-.8-.3-.4.4.3.6-3.2 4.3-8.1 8.4-9.4 7.9-32.2 30.5-31.5 31.2.2.2-1 1.8-2.7 3.4-1.7 1.6-3.1 3.2-3.1 3.6 0 .4-.6 1.4-1.2 2.2-2.7 3.1-3.4 4-5.9 7.4-1.4 1.9-2.8 4.3-3.2 5.3-.4 1-1.1 1.5-1.7 1.2-.5-.3-1 .2-1 1.2s-.8 2.3-1.9 3c-1 .6-2.2 2.4-2.5 3.9-.4 1.5-1.6 3.9-2.7 5.2-1 1.4-1.9 3.2-1.9 4.2 0 .9-.9 2.5-2 3.5-1 .9-1.9 2-1.8 2.4.1.6-1.6 5.3-3.2 8.6-2.6 5.3-8 24.1-8.6 29.7-1.1 11.1 3 23.8 10.2 31.8 7.7 8.5 18.6 12.6 37.6 13.9 30.3 2.2 66.3-3 94.8-13.6 13.3-5 34.9-15.7 44.5-22.1 20.5-13.9 45.2-35.3 59-51.1 15.1-17.3 22.7-29.9 36.1-59.7 9.9-22.1 11-25.2 12.9-37.9 1.9-12.6 1.9-20.3 0-30-4-21.2-14.5-30.7-36.7-33.4-12.3-1.4-16.1-1.3-28.3.9zM523 116c0 .6-.6 1-1.2.7-.7-.2-2.1 0-3.1.5-.9.5-4.5 1.1-8 1.5-3.4.3-6.6.9-7.2 1.3-.5.4-2.7.7-4.8.6-2.1-.1-4.1.2-4.4.7-.2.4-1.1.2-2-.4-1.1-1-1.6-1-2.2 0-.5.7-1.1 1.2-1.5 1.2-2.8-.4-4.6.1-4.6 1.3 0 .9-.9 1.2-2.7.9-2.2-.4-2.5-.2-1.3.7 1.2.8.9.9-1.2.4-1.8-.4-2.8-.2-2.8.5 0 .6-1.5 1.8-3.2 2.7-1.8.9-3.7 2.3-4.1 3-.5.9-1.7 1.2-3.4.8-2.2-.6-2.5-.4-2 1s.3 1.5-1.3.6c-1.3-.7-2.1-.7-2.6.2-.5.7-.3.8.7.3.8-.5 1.1-.4.6 0-1 1.2-4.7 1.4-4.7.3 0-.5-1 0-2.2 1.1-1.1 1.1-2.5 1.8-3 1.5-.4-.3-1.2.5-1.7 1.8-.6 1.3-1 1.9-1 1.4-.1-.5-1-.1-2 .8-1.9 1.7-1.9 1.7-1.4-.6l.6-2.3-2 2c-3.3 3.3-6.3 5.5-7.3 5.5-.5 0-1.3.8-1.9 1.7-.5 1-1.3 1.5-1.7 1.1-.8-.8-8 5.2-7.7 6.4.2.4-.4.5-1.1.2-.8-.3-2.7.1-4.3.9-1.5.7-3.7 1.2-4.7.9-1.4-.3-1.7 0-1.3 1.2.4 1 .1 1.6-.9 1.6-1.3 0-1.5.9-1 5.2.4 2.9 1.1 5.4 1.6 5.6.6.2 1 .8 1 1.4 0 1.9 6.2 13.2 10.8 19.8 22.3 31.8 57.5 56.8 92.7 65.9 25.3 6.5 38.4 7.8 59.6 6.2 18.3-1.5 31.7-6.2 42.4-14.9 6.8-5.5 9.9-11 12.1-21.3 3-14.2-.6-29-11.8-47.7-8.5-14.3-28.3-34.6-43.6-44.6-12.2-8-25-14.6-28.3-14.6-1.3 0-3.6-.6-5.1-1.4-3.7-2-12-3.6-14.6-2.9-1.2.3-2.9 0-3.7-.7-1.2-1-1.5-1-1.5 0zM673.5 357.6c-3.3.2-9.4.8-13.5 1.4-9.5 1.2-14.5 1.8-24.5 2.9-15.6 1.8-29.8 4.1-31 5.1-.7.6-5.5 1.7-10.8 2.4-5.3.8-10.5 2-11.6 2.6-1.2.6-4.7 1.3-7.8 1.6-3.2.3-6.2 1-6.8 1.5-.5.5-1.9.9-3 .9-1.2 0-2.5.3-2.9.7-.8.8-2.7 1.2-7.8 1.5-2.1.2-3.8.6-3.8 1 0 1-8 3.3-10.4 3-1-.1-3.4.7-5.3 1.8s-4.1 2-4.9 2c-.8 0-1.3.4-1 .9.3.5-1.2 1.1-3.4 1.5-2.2.3-4 1.1-4 1.7 0 .6-.7.9-1.5.5-.8-.3-1.5-.1-1.5.4 0 .6-.3.9-.7.8-1.4-.3-6.8 1.5-8.8 2.8-1.1.8-2.9 1.4-4.2 1.4-1.2 0-2.5.5-2.8 1-.4.6-1.5.8-2.4.5-1-.3-2.4.1-3.1 1-.7.8-1.9 1.5-2.7 1.5-.7 0-3.1.9-5.2 2-2.2 1-5.3 2.2-7.1 2.5-1.7.3-4.2 1.2-5.5 2.1-1.3.8-3.4 1.6-4.7 1.8-2.6.2-13.5 5.4-14.4 6.7-.3.5-1 .7-1.5.4-.5-.4-.9-.2-.9.3s-1.8 1.7-4 2.8c-2.2 1-4 2.2-4 2.6 0 .5-.9.8-2 .8s-2.3.6-2.6 1.4c-.3.8-1.5 1.1-3.1.8-2.2-.4-2.5-.2-2 1.3.5 1.3.3 1.6-.8 1.2-.8-.4-1.7-.2-1.9.2-.3.5-3 2-6 3.5s-5.6 3.1-5.8 3.6c-.2.5-1.2 1.1-2.3 1.3-3.3.6-5.9 2-8.4 4.3-1.3 1.2-3 2-3.7 1.7-.8-.3-1.4 0-1.4.6s-.9 1.1-1.9 1.1c-1.1 0-2.3.5-2.6 1-.4.6-1.5.8-2.5.5-1.2-.4-1.9.1-2.3 1.4-.3 1.1-1.7 2.2-3.6 2.6-1.7.4-2.9 1.1-2.5 1.6.3.5-.6.9-2 .9s-2.6.5-2.6 1.1c0 .6-.8.9-1.8.7-1.8-.5-4.5 1.5-3.5 2.6.4.3-.6.6-2.1.6-2.1 0-2.7.4-2.2 1.5.4 1-.1 1.5-1.4 1.5-1.1 0-2 .5-2 1.1 0 .7-1.1.8-3 .4s-3-.3-3 .4c0 .6.8 1.1 1.8 1.1 1.6.1 1.6.1-.1 1.1-.9.5-2.2.7-2.7.4-.6-.3-1-.2-1 .4 0 .6-.7.8-1.5.5-1.1-.5-1.3-.2-.9 1 .3.9.1 1.7-.5 1.7-.6.1-1.5.2-2 .3-.5 0-3.1 2.1-5.8 4.6-2.6 2.5-5.5 4.6-6.3 4.8-.8.2-2.6 1.7-4.1 3.3-1.4 1.6-3.1 2.9-3.8 2.9-.6 0-1.4.7-1.8 1.6-.6 1.7-5 3.9-7.2 3.5-.9-.2-1.2.3-.7 1.4.5 1.3.2 1.5-1.5 1-1.4-.5-2.6 0-3.8 1.4-1 1.2-2.3 2.1-2.8 2.1s-2.3 1.3-3.9 3c-1.6 1.6-3.5 3-4.1 3-.7 0-1.3.5-1.3 1.1 0 .5-.4.8-.9.5-.5-.3-2 .6-3.2 2-1.3 1.3-4.1 3.4-6.2 4.5-2.1 1.1-5.2 3.3-6.9 5-1.7 1.6-3.9 2.9-4.9 2.9-1.1 0-1.9.6-1.9 1.3 0 1.4-4 3.7-6.4 3.7-.8 0-1.6.6-1.9 1.3-.3.7-2.4 2.6-4.8 4.2-2.4 1.7-4.5 3.3-4.7 3.7-.2.5-1 .8-1.7.8-.8 0-2.9 1.6-4.8 3.5s-3.7 3.5-4.1 3.5c-.4 0-2.4 1.6-4.4 3.6-2 2-6.8 6.2-10.7 9.2-3.8 3.1-7.1 6-7.3 6.4-.2.4-1 .8-1.7.8-.8 0-1.7.9-2 2-.3 1.1-1.2 2-1.9 2-2 0-50.6 48.6-50.6 50.6 0 .2-1.6 2.1-3.5 4.1-5.7 6.3-6.5 7.3-5.9 7.3.3 0-.1.6-.8 1.4-.7.8-2.4 2.8-3.8 4.5-1.4 1.7-4 4.7-5.8 6.6-1.8 1.9-3 3.5-2.8 3.5.3 0-.5 1.1-1.7 2.4-1.2 1.3-3.1 3.4-4.2 4.8-1.1 1.3-3.3 4-5 6-1.6 1.9-3.9 4.8-5 6.4-1.1 1.5-2.7 3.6-3.6 4.5-.9.9-2.5 3-3.5 4.8-1 1.7-2.1 3.1-2.5 3.1-.4 0-1 1.1-1.3 2.5-.4 1.4-1.1 2.5-1.6 2.5-.6 0-1 .6-1 1.3 0 .8-1.1 2.4-2.5 3.7-1.4 1.3-2.5 2.9-2.5 3.6 0 .7-.4 1.4-.8 1.6-.9.3-7.2 9.3-7.2 10.3 0 .3-1.8 3-4 6s-4 6.3-4 7.5c0 1.1-.6 2-1.4 2-.8 0-1.7 1.3-2.1 3-.4 1.6-1 3-1.5 3-.4 0-1.3 1.3-2 3-.7 1.6-1.6 3-2.1 3s-.9.5-.9 1c0 1.2-4.1 7.3-5.2 7.8-.5.2-.8.9-.8 1.5 0 1.2-7.1 15.9-8.1 16.7-.3.3-1.4 3.1-2.4 6.2-1 3.2-2.4 6.3-3.1 6.9-.8.6-1.4 2-1.4 3s-.9 3.4-1.9 5.3c-1.1 1.9-1.7 3.7-1.3 4.1.4.4-.1 1.3-1.1 2s-1.6 1.7-1.5 2.1c.2.5-.8 3.4-2.1 6.4-1.3 3-2.2 5.5-2 5.5.2 0-.6 1.1-1.8 2.5-1.3 1.3-2.3 3.2-2.3 4.2s-.4 1.8-1 1.8c-.5 0-1 1.1-1 2.5 0 1.3-.9 3.9-2 5.7-1.1 1.8-2 4.3-2 5.5 0 1.3-.4 2.3-1 2.3-.5 0-1 .8-1 1.8s-.3 2.2-.7 2.6c-.4.3-.8 1.6-1 2.8-.2 1.2-.7 2.5-1.1 2.8-.4.3-.8 1.6-1 3-.1 1.4-.9 4-1.8 5.8-.8 1.8-1.2 3.7-.9 4.2.3.6.1 1-.4 1-.6 0-1.1.9-1.1 2.1 0 1.1-.6 3.3-1.4 4.7-.7 1.5-2.6 6.7-4.2 11.7-1.5 4.9-3.4 10.6-4.3 12.5-.8 1.9-1.4 4.1-1.2 4.8.1.7-.5 1.5-1.3 1.8-1.1.4-1.4 1.4-1 3 .5 1.9.3 2.3-.8 1.9-1.1-.5-1.5.2-1.6 2.6-.1 3.6-2 9-3.6 10.1-.8.6-.7 1.1.2 1.6 1 .7 1 1.1-.2 2.2-.9.7-1.3 1.6-1 2.1.3.5-.5 4.8-1.6 9.6-1.2 4.7-2.3 9.6-2.5 10.7-.1 1.2-.6 3.9-1.1 6.1-.4 2.2-.7 4.8-.5 5.7.1 1-.3 1.8-.9 1.8-.6 0-1 .8-.9 1.7.3 2.1-1 11.2-1.9 13.3-.3.8-.7 2.2-.8 3-.1.8-.7 3.6-1.2 6.1-.5 2.6-1 8.2-1.1 12.5-.1 4.4-.8 12.2-1.6 17.4-.7 5.2-1.6 12.6-2 16.5-.7 8.1-.8 93.7-.1 97.5.2 1.4.9 6.8 1.5 12 2.4 20.3 3 24.8 4.5 34.5.9 5.5 2.1 12.9 2.7 16.5.5 3.6 2.2 11.7 3.6 18 1.4 6.3 3.8 17.1 5.3 24 5.6 25.6 11.5 44.8 22.8 73.5 2.2 5.5 6.5 16.5 9.7 24.5 7 17.7 36.2 76.7 42.5 86 1 1.4 2.8 4.5 4.1 7 5.1 9.4 19.8 32.6 27.4 43 31.6 43.6 53.4 69.4 83.3 98.9 25.4 25.1 47.2 43.7 65.7 56.3 5 3.4 11.7 8.2 15 10.7 10.8 8.3 37.4 26.1 39 26.1.2 0 4.8 2.7 10.2 5.9 25.5 15.4 58.1 31.1 90.8 43.6 3.9 1.5 8.4 3.3 10 4.1 1.7.7 4.8 2 7 2.9 6.6 2.7 44.2 15.2 56 18.6 6.1 1.7 13.9 4 17.5 5 20 5.8 67.1 14.8 85.5 16.4 3.9.4 9.9 1.1 13.4 1.6 10.6 1.6 50 4 74.6 4.6 17.3.4 30.9 0 55-1.6 69-4.6 112.5-13.5 183.5-37.8 48.6-16.6 115.5-50.5 165-83.6 32.2-21.6 66.9-50.9 91.9-77.7 21.5-23.1 52.8-59.2 62.7-72.5 18.4-24.4 29-40.2 39.3-58 3.4-6.1 9.7-16.9 13.8-24 25-43 44.5-90.6 57.8-141 5.5-21 7.6-29.3 9.5-37.5 1.1-4.7 2.9-12.6 4-17.5 1.2-5 3-13.5 4-19 1.1-5.5 3.1-16.1 4.5-23.5 4.9-25.8 6.5-49.7 6.5-98.7 0-36.1-.4-48.2-2-66.1-3.7-41.1-12.8-87.9-25.1-129.2-3.3-11.3-6.6-22.5-7.3-25-5.5-19.2-23.7-64.3-34.2-84.5-27.9-53.8-54.2-94.2-86.4-133-12.1-14.6-49.5-54.2-57.3-60.7-3.4-2.8-8-6.9-10.2-9.1-21.4-21.1-82.9-67.1-117.5-87.9-34.3-20.6-75.5-40.3-103.5-49.6-3.3-1.1-7.1-2.4-8.5-3-3.3-1.5-31-10-60.4-18.7-3.3-.9-9.4-2.3-13.5-3.1-7.2-1.2-13.3-2.7-24.6-5.9-2.7-.7-7.7-1.6-11-2-3.3-.3-7.3-1-9-1.5-1.6-.6-7.5-1.6-13-2.4-5.5-.8-12.7-1.9-16-2.5-3.3-.5-11.6-1.2-18.5-1.6-6.9-.3-13.4-.8-14.5-1-1.1-.3-3.3-.8-5-1.1-3.2-.7-79.9-1.3-90-.8zm88.4 118.3c90.9 10.8 163.5 35 237.1 79.2 41.4 24.9 71.5 48 107 82.3 6.3 6.1 9.9 9.4 8 7.4-1.8-2.1-3-4.1-2.6-4.5.4-.5 1.5.1 2.4 1.2 1 1.2 2.5 2.4 3.5 2.8.9.3 1.7 1.2 1.7 1.8 0 .6 2.4 3.5 5.3 6.4 7.9 8 15.4 16 24.7 26.5 4.6 5.2 8.8 9.6 9.2 9.8.4.2.8 1 .8 1.8 0 .7.9 1.9 2 2.6 1.1.7 2 1.7 2 2.1 0 .5.6 1.4 1.3 2.1 4.7 5 8.1 9.5 22.3 30.2 9.5 13.8 14.5 22.7 27.8 48.9 14.4 28.3 19.3 40.1 32.7 78 8.3 23.4 18.4 65.4 22.9 95 6.1 40.6 7.3 53.1 7.2 80-.1 53.7-3.6 92.3-10.2 115-.5 1.6-1.2 4.8-1.5 7-.4 2.2-1.3 6.2-2 9-.7 2.7-2.1 9.5-3 15-3.7 21.6-19.4 73.5-23.6 77.9-.5.6-.9 1.7-.9 2.5 0 1.7-5.2 12.5-6.2 12.9-.5.2-.8.9-.8 1.5 0 .7-2.3 5.7-5 11.1-2.8 5.5-5 10.5-5 11.3 0 .7-.4 1.3-1 1.3-.5 0-1 .7-1 1.5s-.4 1.5-1 1.5c-.5 0-1 .9-1 2s-.3 2-.7 2c-.9 0-3.3 4.8-3.3 6.6 0 .7-.4 1.4-.8 1.6-.5.1-3.3 4.9-6.3 10.4-3 5.6-6.2 11.3-7.2 12.5-1 1.3-3.6 5.5-5.8 9.4-7.6 13.4-12.6 20.7-21.1 30.7-1 1.2-1.8 2.7-1.8 3.5 0 .7-.4 1.3-1 1.3-.5 0-1 .5-1 1.1 0 .6-1.3 2.4-3 3.9-1.6 1.5-3 3.2-3 3.7 0 .7-3.6 5.3-8.4 10.5-.9 1-1.6 2.1-1.6 2.4 0 .6-5.6 7.8-9 11.4-1.4 1.5-3.4 3.8-4.6 5.1-1.1 1.3-3.6 3.8-5.5 5.5-1.9 1.6-4.5 4.5-5.9 6.3-2.6 3.4-9 10-17.6 18.2-2.7 2.6-7.2 7.1-10 10-6.2 6.6-13.2 12.9-14.2 12.9-.4 0-3.4 2.5-6.7 5.5-9.7 9.1-11.4 10.5-12.3 10.5-.5 0-2.1 1.3-3.6 2.9-1.5 1.6-5.3 4.6-8.3 6.7-3.1 2.1-7.5 5.6-9.8 7.9-2.3 2.2-7.7 6.5-12.1 9.5-4.3 3-8.1 5.7-8.4 6.1-.3.3-2 1.2-3.7 2-1.8.8-3.3 1.9-3.3 2.5 0 .6-1.3 1.7-3 2.4-1.6.7-3 1.6-3 2.1 0 .4-.9 1-1.9 1.4-1.1.3-3.5 1.8-5.4 3.3-1.9 1.6-12 7-22.3 12.2-10.4 5.2-21.1 10.9-23.8 12.7-2.6 1.8-5.6 3.3-6.5 3.3-.9 0-3.1.9-4.9 2-1.8 1.1-4.1 2-5.2 2-1 0-2.1.4-2.4.9-1.2 1.9-21.7 11.2-32.6 14.8-2.5.8-5.8 2-7.5 2.7-1.6.7-9.1 3.2-16.5 5.5-7.4 2.4-15.7 5.1-18.5 6-5 1.8-14.4 4.7-24 7.5-11.5 3.3-39.2 7.9-69.5 11.6-4.1.5-13.5 1.7-20.9 2.6-10.9 1.4-18.8 1.6-44 1.1-51.2-.9-90.9-6-146.3-18.7-13-3-59.2-18.4-75.3-25.1-1.1-.4-4.9-2-8.5-3.4-10.3-4.2-30.6-14.2-41.7-20.6-5.6-3.3-10.4-5.9-10.7-5.9-2.6 0-41.7-25.4-59.3-38.4-4.8-3.6-11.7-8.7-15.3-11.3-9-6.6-21.7-16.8-26.5-21.2-2.2-2-5.6-4.9-7.5-6.5-8.6-7-33.7-32.4-45.2-45.7-2.6-2.9-6.6-7.6-9-10.3-11.5-13.1-35.9-46.1-37.7-51-.2-.6-1.6-2.7-3-4.6-1.5-1.9-3.5-5.2-4.6-7.2-1.1-2.1-2.3-3.8-2.8-3.8-.4 0-.6-.4-.3-.9s-.2-1.9-1.2-3.2c-3.8-5-6.2-10.2-5.7-11.9.4-1.2-1.3-5.3-4.6-11.1-7.5-13.3-26.6-53.1-31.9-66.4-5.8-14.5-14.7-43.2-21.9-70.5-16.6-62.6-20.4-141.2-10.2-207.5 7-44.9 19.3-93.2 32.8-129 4.7-12.3 19.5-46.9 23.3-54.6 1.9-3.8 14.3-23.4 22.9-36.3 1.4-2.1 3.7-5.6 5.1-7.6 28.3-42.8 35-52 48-66 45.9-49.3 70.7-72 102.1-93.2 44.6-30 73.6-47.1 101.4-59.5 27.2-12.2 57.2-23 88-31.6 27-7.6 60.7-14 88.5-16.8 6.3-.6 14.9-1.5 19-1.9 4.1-.4 23.5-.7 43-.6 29.1.2 38.8.7 53.9 2.5z"/><path d="M694.5 591.3c-14 4.7-24 14.4-28.4 27.3-2.3 7-3 25-3.1 85.4-.1 86.5 2.7 102.9 19.5 114.2 15.6 10.5 48 6 56.6-7.8 3.5-5.7 4-9.1 5.5-38.9 1.6-31.3 3.1-142.4 2-149.8-.8-5.2-6.4-14.8-12.1-20.8-2.2-2.3-6.8-5.5-10.2-7.2-5.3-2.4-7.9-3-16.1-3.3-6.4-.3-11 0-13.7.9zM1125 657.5c1.3 1.4 2.6 2.5 2.8 2.5.3 0-.5-1.1-1.8-2.5s-2.6-2.5-2.8-2.5c-.3 0 .5 1.1 1.8 2.5zM916.7 666c-15.7 2.8-30.8 19.2-48.3 52.7-3.7 7-8.4 16-10.4 19.9-3.8 7.3-14.8 26.8-18.7 33.2-1.2 2.1-3 5-3.8 6.7-.9 1.6-2.7 4.8-4 7-1.3 2.2-3.2 5.6-4.3 7.5-1 1.9-5.4 9.8-9.7 17.5-10.7 19-12 21.8-13.9 30.4-1.8 7.7-1.6 10 1.3 18.6 3.1 9.4 16.7 19.9 29 22.6 20.2 4.3 35.1-7.1 61.6-47.6 5.8-8.8 19.5-29.5 30.3-46 28.9-43.9 38.2-60.7 41.8-76.5 1.5-6.4 1.2-13.4-.6-16.9-.5-.9-2.1-4.1-3.4-7.1-2.8-6.1-10.9-15-13.6-15-.9 0-5.1-1.6-9.3-3.5-8.3-3.9-15.9-5-24-3.5zM483.5 667c-8.5 2.1-19.9 9.3-26.3 16.6-5.7 6.4-8.5 14-8.5 23.5-.1 10.3 3.2 19.1 13.5 36.1 4.5 7.3 9.8 16.4 12 20.3 2.1 3.8 4.5 7.6 5.1 8.5.7.8 2.2 3.3 3.2 5.4 1.1 2.2 3.4 5.3 5.1 7.1 5.3 5.4 18.2 25.4 45.1 70 17.4 28.8 14.8 25.9 25.9 28 10.5 2 16.8 1.6 25.6-1.4 8.1-2.8 13.5-6.6 16.9-11.9 7.1-11.2 7.5-22.4 1.5-38.1-3.7-9.5-30.8-63.9-46.9-94.1-5.1-9.6-12.9-24.3-17.2-32.5-13.6-26-17.3-30.7-28.5-35.9-4.7-2.2-6.8-2.6-14.5-2.5-4.9.1-10.3.4-12 .9zM321.3 830.1c-5.2 1-10.4 3.3-16.1 7.2-13.6 9.1-21.8 26.8-21 44.9.4 7.5.9 9.6 4.2 16.2 4.4 9 13.9 18.9 22.5 23.5 10.9 5.7 57.2 22.5 107.8 39 33.8 11 42 13.1 51.3 13.3 5.9.1 7.9-.4 13.4-3.1 10.5-5.1 17.8-15.7 19.2-27.4.6-5.1-.9-13.7-2.4-13.7-.5 0-1.4-1.6-2.1-3.5-.7-1.9-2.8-5.1-4.7-7.1-1.9-2-3.4-4.2-3.4-4.8-.1-2.4-10-8.3-36.1-21.4-15.1-7.6-29-14.7-30.9-15.8-1.9-1.2-5.5-3.2-8-4.6-2.5-1.4-6.9-3.9-9.8-5.7-2.9-1.7-5.4-3.1-5.6-3.1-.2 0-9.3-5.2-20.2-11.7-24.9-14.5-33.5-18.9-42.1-21.4-7.3-2-9.4-2.2-16-.8zM1070.9 833.8c-4.7 2.1-18.4 9.4-30.5 16.2-12 6.8-24.4 13.7-27.4 15.3-3 1.6-5.9 3.3-6.5 3.7-.5.4-4.6 2.7-9 5-4.4 2.4-9.3 5-11 6-1.6.9-13.8 7.2-27 14s-26.3 13.9-29.2 15.9c-9.3 6.6-16.6 17.6-18.5 28.1-1.2 6.9.5 14.2 4.7 20.4 1.4 2 2.5 4.5 2.5 5.5 0 3 4.9 6.4 14.1 9.5 5.9 2.1 10.1 2 21.7-.5 21.6-4.6 40.8-10.6 80.7-25.1 9.9-3.7 27-9.6 38-13.3 31.1-10.5 40-16 48.6-30.5 6.5-11.1 7.2-13.8 6.5-28-.7-13.7-2.7-22.1-6.3-26-1.3-1.3-2.3-3.2-2.3-4.2 0-1.2-.7-1.8-2.1-1.8-1.2 0-4.7-2.2-7.8-4.8-8.2-7-12.1-8.6-22.1-8.9-8-.3-9-.1-17.1 3.5zM277.5 1019c-3.8.4-9 1.5-11.4 2.4-2.4.9-5.2 1.6-6.1 1.6-2.9 0-11.2 7.2-15.2 13.1-2.1 3-4.9 8.5-6.4 12.4-2.4 6.5-2.6 7.9-2.2 18.5.4 8.9 1 12.6 2.6 16.3 2.9 6.5 7.6 12.3 12.6 15.4 2.2 1.5 4.6 3.2 5.4 3.9 3.5 3.6 19.7 5.4 42.7 4.8 46-1.2 115.5-5.7 129.4-8.4 11.5-2.2 22.4-9.5 27.6-18.4 2.8-4.8 5.5-15.8 5.5-22.4 0-6.6-4.6-15.7-10.1-20.3-11.9-9.6-19.3-13.1-31.7-14.9-21.5-3-126.5-6-142.7-4zM1120.9 1019.4c-.3.3-25.7 1.2-56.5 2.1-70.5 1.9-91.2 3.9-98.9 9.3-5.1 3.7-11.9 13.8-14.6 22-1.8 5.3-2.1 8.1-1.7 16.5.4 8.7.8 10.9 3.1 15.2 1.5 2.7 4.3 6.1 6.2 7.5 1.9 1.4 3.5 3 3.5 3.5 0 2.5 19.9 6.9 38 8.4 6.9.6 39.2 1.6 71.8 2.1 65.7 1.2 72.2.8 82.4-4.7 12.8-6.9 19.8-23.2 18.5-42.3-.9-11.8-2.3-17.6-5-20.5-1.2-1.3-3.5-4.1-5.2-6.3-4-5.1-9.3-8.7-15.7-10.7-5.3-1.6-24.8-3.3-25.9-2.1zM453.5 1141.4c-8.4 1.6-16.1 5-47 20.7-48.9 24.7-69.8 35.6-80.2 41.7-2.6 1.5-7.7 4.2-11.3 5.9-8.5 3.9-14.9 10.6-20 20.7-4.5 9.1-5.7 14.8-6.1 29.3-.2 9.5-.1 10.4 2.9 16.4 4.3 8.6 6.6 11.2 9.2 10.4 1.2-.4 2.6-.2 3.3.3.7.5 2.3 1.3 3.7 1.7 1.4.4 3.6 1.5 5 2.5 2.9 2 18.5 5 26.1 5 4.6 0 7.3-1 18.4-6.4 7.2-3.5 18-9.7 24-13.8 6.1-4 15.3-10.2 20.5-13.8 5.2-3.5 13.8-9.6 19-13.5 5.2-4 17.6-12.9 27.5-20 21.6-15.3 33.8-25 42.7-33.8 7.6-7.4 9.2-11.3 9.1-21.7-.1-10.5-2.6-14.5-17.3-28.1-2.1-2-14.3-4.9-19.7-4.8-2.1.1-6.5.6-9.8 1.3zM933.2 1141.1c-5.8 1.1-14.5 5.9-15.7 8.6-.5 1.3-1.3 2.3-1.7 2.3-1.7 0-3.8 3.5-5.8 10.2-1.2 4-2.7 7.6-3.4 8-.8.6-.8.8.2.8.6 0 1.2 1.1 1.2 2.4 0 3.3 2.2 8.3 6.1 13.6 3.9 5.3 16.6 18 18.1 18 .6 0 .8.9.5 2-.3 1.3.1 2.4 1.1 2.9s5.6 4 10.4 7.8c4.8 3.7 10.9 8.4 13.6 10.3 2.7 1.9 6.9 5.2 9.3 7.2 26.7 22.5 56.1 44.9 71.5 54.5 9.4 5.9 14.8 8 24.9 9.4 9.4 1.3 19.6-.7 27.3-5.3 7.9-4.8 16.8-14.8 21.1-23.7 3.3-7.1 3.6-8.4 3.9-18.8.4-9.7.2-11.4-1.2-11.9-.9-.3-1.6-1.1-1.6-1.7 0-3.1-7-14.7-12-19.7-4.8-4.8-8.6-7.1-30.2-17.8-13.6-6.7-24.9-12.2-25.2-12.2-.2 0-14.6-6.9-31.8-15.4-43.2-21.2-60.9-29.4-67.6-31.1-6.2-1.6-6.8-1.7-13-.4zM561.5 1221.4c-9.7 3.3-14.5 7.6-23.3 20.6-3.4 5-6.2 9.3-6.2 9.5 0 .7-45 68.2-55.7 83.5-3.7 5.2-9.7 13.5-13.5 18.5-9.9 13.1-14.7 23.3-15.8 33.6-1.5 15.2 1.5 25.5 9.7 33.3 9.8 9.4 10.8 10 22.2 12.2 30.2 5.9 45.1-6.5 71.6-59.6 7.6-15 29-55.5 30.5-57.5.4-.6 4.8-8.9 9.8-18.5 11.5-22.3 13.4-27.8 13.6-39.6.1-8.8 0-9.3-4.2-17.8-2.4-4.8-5.1-9-6-9.3-.8-.4-2.3-1.4-3.2-2.3-6-6-21.4-9.4-29.5-6.6zM826.9 1221.5c-6.2 2.2-11.7 6.3-16 11.7-7.8 9.9-9.4 16.6-6.5 27.5 2 7.5 5.3 14.2 14.1 28.8 10.5 17.2 14.4 24.3 28.8 51.5 3 5.8 9 17 13.2 25 4.3 8 10 18.8 12.8 24 10 18.9 18.9 31.7 25 36.4 6.7 5.1 12.1 6.6 24.6 6.9 10.5.2 12.3-.1 19.7-2.7 18-6.4 26.6-18 28-38.1.6-7.6.4-9.4-.9-10.7-.9-.8-1.9-2.9-2.3-4.4-.4-1.6-1.5-4.6-2.5-6.6-1.1-2.1-1.9-4.6-1.9-5.7 0-1-1.9-4.5-4.3-7.7-2.3-3.3-5-7.1-5.9-8.6-1-1.5-3-3.3-4.5-4-1.8-.9-2.9-2.4-3.4-4.5-.3-1.7-1.2-3.8-2-4.6-.8-.7-2.5-3-3.9-5s-3.2-3.7-4-3.7c-.8 0-5-4.9-9.3-10.8-4.3-5.9-11.1-15-15.2-20.2-4.1-5.2-7.5-10.3-7.5-11.3 0-.9-.6-1.7-1.2-1.7-.7 0-4.9-5.1-9.3-11.3-24.3-34.1-34.9-45.9-45.2-49.7-6.2-2.3-15-2.5-20.4-.5zM969.5 1256c-.3.5-.1 1 .4 1 .6 0 1.1-.5 1.1-1 0-.6-.2-1-.4-1-.3 0-.8.4-1.1 1zM956.7 1261.6c-2 2-.5 3.4 3.8 3.4 4.7 0 6.1-1.4 2.3-2.3-1.3-.2-3-.7-3.9-1.1-.8-.4-1.8-.3-2.2 0zM695.2 1264.6c-3.3.7-7.1 1.8-8.4 2.5-7.6 4.1-14.3 12.4-17.9 22.4-2.2 5.9-2.2 7.7-3.2 81.5-1.2 98-.7 104.6 9.2 116.9 2.1 2.7 5.3 5.2 8.3 6.5 5.1 2.2 5.8 3.2 3.1 3.9-3.5.9 15.4.7 26.6-.3 22.7-2 28.5-8.3 31.7-33.9 1.4-11.7 1.5-22.6 1.1-83.5-.3-38.6-.8-72.4-1.2-75.1-1-8-3.3-16.1-5.9-21.2-3-6-10-14-12.9-14.8-1.2-.4-4.4-1.7-7.2-3-6.1-2.8-15.3-3.5-23.3-1.9zM1018.7 1285.7c-.2.5-.1 1.7.3 2.7.6 1.9.7 1.9 1.2-.2.6-2.1-.6-4-1.5-2.5zM1042 1300.4c0 .2.9.6 2 .9 1.1.3 1.8.1 1.4-.4-.5-.9-3.4-1.3-3.4-.5zM902.5 1433c.3.5.8 1 1.1 1 .2 0 .4-.5.4-1 0-.6-.5-1-1.1-1-.5 0-.7.4-.4 1z"/></svg>